<svg xmlns="http://www.w3.org/2000/svg" viewBox="0 0 112 34" width="2688" height="816" shape-rendering="crispEdges">
<rect width="112" height="34" fill="#1E34C8"/>
<rect x="49" y="5" width="54" height="1" fill="#FFD60A"/>
<rect x="33" y="6" width="6" height="1" fill="#101014"/>
<rect x="49" y="6" width="54" height="1" fill="#FFD60A"/>
<rect x="8" y="7" width="7" height="1" fill="#101014"/>
<rect x="21" y="7" width="2" height="1" fill="#FFD60A"/>
<rect x="24" y="7" width="2" height="1" fill="#FFD60A"/>
<rect x="31" y="7" width="10" height="1" fill="#101014"/>
<rect x="49" y="7" width="2" height="1" fill="#FFD60A"/>
<rect x="51" y="7" width="2" height="1" fill="#101014"/>
<rect x="53" y="7" width="5" height="1" fill="#FFD60A"/>
<rect x="58" y="7" width="6" height="1" fill="#101014"/>
<rect x="64" y="7" width="2" height="1" fill="#FFD60A"/>
<rect x="66" y="7" width="5" height="1" fill="#101014"/>
<rect x="71" y="7" width="5" height="1" fill="#FFD60A"/>
<rect x="76" y="7" width="5" height="1" fill="#101014"/>
<rect x="81" y="7" width="2" height="1" fill="#FFD60A"/>
<rect x="83" y="7" width="4" height="1" fill="#101014"/>
<rect x="87" y="7" width="1" height="1" fill="#FFD60A"/>
<rect x="88" y="7" width="6" height="1" fill="#101014"/>
<rect x="94" y="7" width="2" height="1" fill="#FFD60A"/>
<rect x="96" y="7" width="4" height="1" fill="#101014"/>
<rect x="100" y="7" width="3" height="1" fill="#FFD60A"/>
<rect x="6" y="8" width="11" height="1" fill="#101014"/>
<rect x="20" y="8" width="7" height="1" fill="#FFD60A"/>
<rect x="30" y="8" width="12" height="1" fill="#101014"/>
<rect x="49" y="8" width="2" height="1" fill="#FFD60A"/>
<rect x="51" y="8" width="2" height="1" fill="#101014"/>
<rect x="53" y="8" width="5" height="1" fill="#FFD60A"/>
<rect x="58" y="8" width="2" height="1" fill="#101014"/>
<rect x="60" y="8" width="5" height="1" fill="#FFD60A"/>
<rect x="65" y="8" width="2" height="1" fill="#101014"/>
<rect x="67" y="8" width="9" height="1" fill="#FFD60A"/>
<rect x="76" y="8" width="2" height="1" fill="#101014"/>
<rect x="78" y="8" width="2" height="1" fill="#FFD60A"/>
<rect x="80" y="8" width="2" height="1" fill="#101014"/>
<rect x="82" y="8" width="2" height="1" fill="#FFD60A"/>
<rect x="84" y="8" width="2" height="1" fill="#101014"/>
<rect x="86" y="8" width="4" height="1" fill="#FFD60A"/>
<rect x="90" y="8" width="2" height="1" fill="#101014"/>
<rect x="92" y="8" width="3" height="1" fill="#FFD60A"/>
<rect x="95" y="8" width="2" height="1" fill="#101014"/>
<rect x="97" y="8" width="2" height="1" fill="#FFD60A"/>
<rect x="99" y="8" width="2" height="1" fill="#101014"/>
<rect x="101" y="8" width="2" height="1" fill="#FFD60A"/>
<rect x="5" y="9" width="13" height="1" fill="#101014"/>
<rect x="20" y="9" width="7" height="1" fill="#FFD60A"/>
<rect x="29" y="9" width="14" height="1" fill="#101014"/>
<rect x="49" y="9" width="2" height="1" fill="#FFD60A"/>
<rect x="51" y="9" width="2" height="1" fill="#101014"/>
<rect x="53" y="9" width="5" height="1" fill="#FFD60A"/>
<rect x="58" y="9" width="2" height="1" fill="#101014"/>
<rect x="60" y="9" width="5" height="1" fill="#FFD60A"/>
<rect x="65" y="9" width="2" height="1" fill="#101014"/>
<rect x="67" y="9" width="9" height="1" fill="#FFD60A"/>
<rect x="76" y="9" width="2" height="1" fill="#101014"/>
<rect x="78" y="9" width="2" height="1" fill="#FFD60A"/>
<rect x="80" y="9" width="2" height="1" fill="#101014"/>
<rect x="82" y="9" width="2" height="1" fill="#FFD60A"/>
<rect x="84" y="9" width="2" height="1" fill="#101014"/>
<rect x="86" y="9" width="4" height="1" fill="#FFD60A"/>
<rect x="90" y="9" width="2" height="1" fill="#101014"/>
<rect x="92" y="9" width="3" height="1" fill="#FFD60A"/>
<rect x="95" y="9" width="2" height="1" fill="#101014"/>
<rect x="97" y="9" width="2" height="1" fill="#FFD60A"/>
<rect x="99" y="9" width="2" height="1" fill="#101014"/>
<rect x="101" y="9" width="2" height="1" fill="#FFD60A"/>
<rect x="5" y="10" width="13" height="1" fill="#101014"/>
<rect x="21" y="10" width="5" height="1" fill="#FFD60A"/>
<rect x="29" y="10" width="14" height="1" fill="#101014"/>
<rect x="49" y="10" width="2" height="1" fill="#FFD60A"/>
<rect x="51" y="10" width="2" height="1" fill="#101014"/>
<rect x="53" y="10" width="5" height="1" fill="#FFD60A"/>
<rect x="58" y="10" width="5" height="1" fill="#101014"/>
<rect x="63" y="10" width="3" height="1" fill="#FFD60A"/>
<rect x="66" y="10" width="4" height="1" fill="#101014"/>
<rect x="70" y="10" width="6" height="1" fill="#FFD60A"/>
<rect x="76" y="10" width="5" height="1" fill="#101014"/>
<rect x="81" y="10" width="3" height="1" fill="#FFD60A"/>
<rect x="84" y="10" width="2" height="1" fill="#101014"/>
<rect x="86" y="10" width="4" height="1" fill="#FFD60A"/>
<rect x="90" y="10" width="2" height="1" fill="#101014"/>
<rect x="92" y="10" width="3" height="1" fill="#FFD60A"/>
<rect x="95" y="10" width="2" height="1" fill="#101014"/>
<rect x="97" y="10" width="2" height="1" fill="#FFD60A"/>
<rect x="99" y="10" width="2" height="1" fill="#101014"/>
<rect x="101" y="10" width="2" height="1" fill="#FFD60A"/>
<rect x="5" y="11" width="3" height="1" fill="#101014"/>
<rect x="8" y="11" width="9" height="1" fill="#F4C9A6"/>
<rect x="17" y="11" width="1" height="1" fill="#101014"/>
<rect x="22" y="11" width="3" height="1" fill="#FFD60A"/>
<rect x="29" y="11" width="2" height="1" fill="#101014"/>
<rect x="31" y="11" width="2" height="1" fill="#F4C9A6"/>
<rect x="33" y="11" width="10" height="1" fill="#101014"/>
<rect x="49" y="11" width="2" height="1" fill="#FFD60A"/>
<rect x="51" y="11" width="2" height="1" fill="#101014"/>
<rect x="53" y="11" width="5" height="1" fill="#FFD60A"/>
<rect x="58" y="11" width="2" height="1" fill="#101014"/>
<rect x="60" y="11" width="9" height="1" fill="#FFD60A"/>
<rect x="69" y="11" width="2" height="1" fill="#101014"/>
<rect x="71" y="11" width="5" height="1" fill="#FFD60A"/>
<rect x="76" y="11" width="4" height="1" fill="#101014"/>
<rect x="80" y="11" width="4" height="1" fill="#FFD60A"/>
<rect x="84" y="11" width="2" height="1" fill="#101014"/>
<rect x="86" y="11" width="4" height="1" fill="#FFD60A"/>
<rect x="90" y="11" width="2" height="1" fill="#101014"/>
<rect x="92" y="11" width="3" height="1" fill="#FFD60A"/>
<rect x="95" y="11" width="2" height="1" fill="#101014"/>
<rect x="97" y="11" width="2" height="1" fill="#FFD60A"/>
<rect x="99" y="11" width="2" height="1" fill="#101014"/>
<rect x="101" y="11" width="2" height="1" fill="#FFD60A"/>
<rect x="5" y="12" width="2" height="1" fill="#101014"/>
<rect x="7" y="12" width="10" height="1" fill="#F4C9A6"/>
<rect x="17" y="12" width="1" height="1" fill="#101014"/>
<rect x="23" y="12" width="1" height="1" fill="#FFD60A"/>
<rect x="29" y="12" width="1" height="1" fill="#101014"/>
<rect x="30" y="12" width="9" height="1" fill="#F4C9A6"/>
<rect x="39" y="12" width="4" height="1" fill="#101014"/>
<rect x="49" y="12" width="2" height="1" fill="#FFD60A"/>
<rect x="51" y="12" width="2" height="1" fill="#101014"/>
<rect x="53" y="12" width="5" height="1" fill="#FFD60A"/>
<rect x="58" y="12" width="2" height="1" fill="#101014"/>
<rect x="60" y="12" width="9" height="1" fill="#FFD60A"/>
<rect x="69" y="12" width="2" height="1" fill="#101014"/>
<rect x="71" y="12" width="5" height="1" fill="#FFD60A"/>
<rect x="76" y="12" width="2" height="1" fill="#101014"/>
<rect x="78" y="12" width="1" height="1" fill="#FFD60A"/>
<rect x="79" y="12" width="2" height="1" fill="#101014"/>
<rect x="81" y="12" width="3" height="1" fill="#FFD60A"/>
<rect x="84" y="12" width="2" height="1" fill="#101014"/>
<rect x="86" y="12" width="4" height="1" fill="#FFD60A"/>
<rect x="90" y="12" width="2" height="1" fill="#101014"/>
<rect x="92" y="12" width="3" height="1" fill="#FFD60A"/>
<rect x="95" y="12" width="2" height="1" fill="#101014"/>
<rect x="97" y="12" width="2" height="1" fill="#FFD60A"/>
<rect x="99" y="12" width="2" height="1" fill="#101014"/>
<rect x="101" y="12" width="2" height="1" fill="#FFD60A"/>
<rect x="5" y="13" width="1" height="1" fill="#101014"/>
<rect x="6" y="13" width="11" height="1" fill="#F4C9A6"/>
<rect x="17" y="13" width="1" height="1" fill="#101014"/>
<rect x="29" y="13" width="1" height="1" fill="#101014"/>
<rect x="30" y="13" width="10" height="1" fill="#F4C9A6"/>
<rect x="40" y="13" width="3" height="1" fill="#101014"/>
<rect x="49" y="13" width="2" height="1" fill="#FFD60A"/>
<rect x="51" y="13" width="6" height="1" fill="#101014"/>
<rect x="57" y="13" width="1" height="1" fill="#FFD60A"/>
<rect x="58" y="13" width="6" height="1" fill="#101014"/>
<rect x="64" y="13" width="1" height="1" fill="#FFD60A"/>
<rect x="65" y="13" width="5" height="1" fill="#101014"/>
<rect x="70" y="13" width="6" height="1" fill="#FFD60A"/>
<rect x="76" y="13" width="2" height="1" fill="#101014"/>
<rect x="78" y="13" width="2" height="1" fill="#FFD60A"/>
<rect x="80" y="13" width="2" height="1" fill="#101014"/>
<rect x="82" y="13" width="1" height="1" fill="#FFD60A"/>
<rect x="83" y="13" width="4" height="1" fill="#101014"/>
<rect x="87" y="13" width="3" height="1" fill="#FFD60A"/>
<rect x="90" y="13" width="2" height="1" fill="#101014"/>
<rect x="92" y="13" width="4" height="1" fill="#FFD60A"/>
<rect x="96" y="13" width="4" height="1" fill="#101014"/>
<rect x="100" y="13" width="3" height="1" fill="#FFD60A"/>
<rect x="5" y="14" width="1" height="1" fill="#101014"/>
<rect x="6" y="14" width="3" height="1" fill="#F4C9A6"/>
<rect x="9" y="14" width="1" height="1" fill="#FFFFFF"/>
<rect x="10" y="14" width="1" height="1" fill="#101014"/>
<rect x="11" y="14" width="4" height="1" fill="#F4C9A6"/>
<rect x="15" y="14" width="1" height="1" fill="#FFFFFF"/>
<rect x="16" y="14" width="2" height="1" fill="#101014"/>
<rect x="29" y="14" width="2" height="1" fill="#101014"/>
<rect x="31" y="14" width="1" height="1" fill="#FFFFFF"/>
<rect x="32" y="14" width="4" height="1" fill="#F4C9A6"/>
<rect x="36" y="14" width="1" height="1" fill="#101014"/>
<rect x="37" y="14" width="1" height="1" fill="#FFFFFF"/>
<rect x="38" y="14" width="2" height="1" fill="#F4C9A6"/>
<rect x="40" y="14" width="3" height="1" fill="#101014"/>
<rect x="49" y="14" width="54" height="1" fill="#FFD60A"/>
<rect x="5" y="15" width="1" height="1" fill="#101014"/>
<rect x="6" y="15" width="11" height="1" fill="#F4C9A6"/>
<rect x="17" y="15" width="1" height="1" fill="#101014"/>
<rect x="29" y="15" width="1" height="1" fill="#101014"/>
<rect x="30" y="15" width="10" height="1" fill="#F4C9A6"/>
<rect x="40" y="15" width="3" height="1" fill="#101014"/>
<rect x="49" y="15" width="54" height="1" fill="#FFD60A"/>
<rect x="5" y="16" width="1" height="1" fill="#101014"/>
<rect x="6" y="16" width="1" height="1" fill="#DDA27F"/>
<rect x="7" y="16" width="11" height="1" fill="#F4C9A6"/>
<rect x="18" y="16" width="1" height="1" fill="#101014"/>
<rect x="28" y="16" width="1" height="1" fill="#101014"/>
<rect x="29" y="16" width="11" height="1" fill="#F4C9A6"/>
<rect x="40" y="16" width="3" height="1" fill="#101014"/>
<rect x="5" y="17" width="1" height="1" fill="#101014"/>
<rect x="6" y="17" width="1" height="1" fill="#DDA27F"/>
<rect x="7" y="17" width="9" height="1" fill="#F4C9A6"/>
<rect x="16" y="17" width="1" height="1" fill="#DDA27F"/>
<rect x="17" y="17" width="1" height="1" fill="#F4C9A6"/>
<rect x="18" y="17" width="1" height="1" fill="#101014"/>
<rect x="28" y="17" width="1" height="1" fill="#101014"/>
<rect x="29" y="17" width="1" height="1" fill="#F4C9A6"/>
<rect x="30" y="17" width="1" height="1" fill="#DDA27F"/>
<rect x="31" y="17" width="9" height="1" fill="#F4C9A6"/>
<rect x="40" y="17" width="3" height="1" fill="#101014"/>
<rect x="5" y="18" width="1" height="1" fill="#101014"/>
<rect x="6" y="18" width="1" height="1" fill="#DDA27F"/>
<rect x="7" y="18" width="6" height="1" fill="#F4C9A6"/>
<rect x="13" y="18" width="6" height="1" fill="#101014"/>
<rect x="29" y="18" width="1" height="1" fill="#101014"/>
<rect x="30" y="18" width="9" height="1" fill="#F4C9A6"/>
<rect x="39" y="18" width="1" height="1" fill="#DDA27F"/>
<rect x="40" y="18" width="3" height="1" fill="#101014"/>
<rect x="49" y="18" width="58" height="1" fill="#FFD60A"/>
<rect x="5" y="19" width="1" height="1" fill="#101014"/>
<rect x="6" y="19" width="1" height="1" fill="#DDA27F"/>
<rect x="7" y="19" width="5" height="1" fill="#F4C9A6"/>
<rect x="12" y="19" width="6" height="1" fill="#101014"/>
<rect x="29" y="19" width="1" height="1" fill="#101014"/>
<rect x="30" y="19" width="1" height="1" fill="#F4C9A6"/>
<rect x="31" y="19" width="3" height="1" fill="#E3323B"/>
<rect x="34" y="19" width="5" height="1" fill="#F4C9A6"/>
<rect x="39" y="19" width="1" height="1" fill="#DDA27F"/>
<rect x="40" y="19" width="3" height="1" fill="#101014"/>
<rect x="49" y="19" width="58" height="1" fill="#FFD60A"/>
<rect x="5" y="20" width="1" height="1" fill="#101014"/>
<rect x="6" y="20" width="1" height="1" fill="#DDA27F"/>
<rect x="7" y="20" width="10" height="1" fill="#F4C9A6"/>
<rect x="17" y="20" width="1" height="1" fill="#101014"/>
<rect x="30" y="20" width="1" height="1" fill="#101014"/>
<rect x="31" y="20" width="7" height="1" fill="#F4C9A6"/>
<rect x="38" y="20" width="1" height="1" fill="#DDA27F"/>
<rect x="39" y="20" width="4" height="1" fill="#101014"/>
<rect x="49" y="20" width="2" height="1" fill="#FFD60A"/>
<rect x="51" y="20" width="2" height="1" fill="#101014"/>
<rect x="53" y="20" width="3" height="1" fill="#FFD60A"/>
<rect x="56" y="20" width="2" height="1" fill="#101014"/>
<rect x="58" y="20" width="1" height="1" fill="#FFD60A"/>
<rect x="59" y="20" width="4" height="1" fill="#101014"/>
<rect x="63" y="20" width="1" height="1" fill="#FFD60A"/>
<rect x="64" y="20" width="6" height="1" fill="#101014"/>
<rect x="70" y="20" width="2" height="1" fill="#FFD60A"/>
<rect x="72" y="20" width="5" height="1" fill="#101014"/>
<rect x="77" y="20" width="2" height="1" fill="#FFD60A"/>
<rect x="79" y="20" width="4" height="1" fill="#101014"/>
<rect x="83" y="20" width="2" height="1" fill="#FFD60A"/>
<rect x="85" y="20" width="2" height="1" fill="#101014"/>
<rect x="87" y="20" width="2" height="1" fill="#FFD60A"/>
<rect x="89" y="20" width="2" height="1" fill="#101014"/>
<rect x="91" y="20" width="1" height="1" fill="#FFD60A"/>
<rect x="92" y="20" width="2" height="1" fill="#101014"/>
<rect x="94" y="20" width="2" height="1" fill="#FFD60A"/>
<rect x="96" y="20" width="2" height="1" fill="#101014"/>
<rect x="98" y="20" width="2" height="1" fill="#FFD60A"/>
<rect x="100" y="20" width="4" height="1" fill="#101014"/>
<rect x="104" y="20" width="3" height="1" fill="#FFD60A"/>
<rect x="6" y="21" width="1" height="1" fill="#101014"/>
<rect x="7" y="21" width="1" height="1" fill="#DDA27F"/>
<rect x="8" y="21" width="9" height="1" fill="#F4C9A6"/>
<rect x="17" y="21" width="1" height="1" fill="#101014"/>
<rect x="31" y="21" width="1" height="1" fill="#101014"/>
<rect x="32" y="21" width="4" height="1" fill="#F4C9A6"/>
<rect x="36" y="21" width="2" height="1" fill="#DDA27F"/>
<rect x="38" y="21" width="5" height="1" fill="#101014"/>
<rect x="49" y="21" width="2" height="1" fill="#FFD60A"/>
<rect x="51" y="21" width="3" height="1" fill="#101014"/>
<rect x="54" y="21" width="1" height="1" fill="#FFD60A"/>
<rect x="55" y="21" width="3" height="1" fill="#101014"/>
<rect x="58" y="21" width="2" height="1" fill="#FFD60A"/>
<rect x="60" y="21" width="2" height="1" fill="#101014"/>
<rect x="62" y="21" width="4" height="1" fill="#FFD60A"/>
<rect x="66" y="21" width="2" height="1" fill="#101014"/>
<rect x="68" y="21" width="3" height="1" fill="#FFD60A"/>
<rect x="71" y="21" width="2" height="1" fill="#101014"/>
<rect x="73" y="21" width="5" height="1" fill="#FFD60A"/>
<rect x="78" y="21" width="2" height="1" fill="#101014"/>
<rect x="80" y="21" width="2" height="1" fill="#FFD60A"/>
<rect x="82" y="21" width="2" height="1" fill="#101014"/>
<rect x="84" y="21" width="1" height="1" fill="#FFD60A"/>
<rect x="85" y="21" width="2" height="1" fill="#101014"/>
<rect x="87" y="21" width="2" height="1" fill="#FFD60A"/>
<rect x="89" y="21" width="2" height="1" fill="#101014"/>
<rect x="91" y="21" width="1" height="1" fill="#FFD60A"/>
<rect x="92" y="21" width="2" height="1" fill="#101014"/>
<rect x="94" y="21" width="1" height="1" fill="#FFD60A"/>
<rect x="95" y="21" width="2" height="1" fill="#101014"/>
<rect x="97" y="21" width="2" height="1" fill="#FFD60A"/>
<rect x="99" y="21" width="2" height="1" fill="#101014"/>
<rect x="101" y="21" width="2" height="1" fill="#FFD60A"/>
<rect x="103" y="21" width="2" height="1" fill="#101014"/>
<rect x="105" y="21" width="2" height="1" fill="#FFD60A"/>
<rect x="7" y="22" width="1" height="1" fill="#101014"/>
<rect x="8" y="22" width="2" height="1" fill="#DDA27F"/>
<rect x="10" y="22" width="6" height="1" fill="#F4C9A6"/>
<rect x="16" y="22" width="1" height="1" fill="#101014"/>
<rect x="32" y="22" width="11" height="1" fill="#101014"/>
<rect x="49" y="22" width="2" height="1" fill="#FFD60A"/>
<rect x="51" y="22" width="7" height="1" fill="#101014"/>
<rect x="58" y="22" width="2" height="1" fill="#FFD60A"/>
<rect x="60" y="22" width="2" height="1" fill="#101014"/>
<rect x="62" y="22" width="4" height="1" fill="#FFD60A"/>
<rect x="66" y="22" width="2" height="1" fill="#101014"/>
<rect x="68" y="22" width="3" height="1" fill="#FFD60A"/>
<rect x="71" y="22" width="2" height="1" fill="#101014"/>
<rect x="73" y="22" width="5" height="1" fill="#FFD60A"/>
<rect x="78" y="22" width="2" height="1" fill="#101014"/>
<rect x="80" y="22" width="2" height="1" fill="#FFD60A"/>
<rect x="82" y="22" width="2" height="1" fill="#101014"/>
<rect x="84" y="22" width="1" height="1" fill="#FFD60A"/>
<rect x="85" y="22" width="2" height="1" fill="#101014"/>
<rect x="87" y="22" width="2" height="1" fill="#FFD60A"/>
<rect x="89" y="22" width="2" height="1" fill="#101014"/>
<rect x="91" y="22" width="1" height="1" fill="#FFD60A"/>
<rect x="92" y="22" width="4" height="1" fill="#101014"/>
<rect x="96" y="22" width="3" height="1" fill="#FFD60A"/>
<rect x="99" y="22" width="2" height="1" fill="#101014"/>
<rect x="101" y="22" width="2" height="1" fill="#FFD60A"/>
<rect x="103" y="22" width="2" height="1" fill="#101014"/>
<rect x="105" y="22" width="2" height="1" fill="#FFD60A"/>
<rect x="8" y="23" width="9" height="1" fill="#101014"/>
<rect x="38" y="23" width="4" height="1" fill="#101014"/>
<rect x="49" y="23" width="2" height="1" fill="#FFD60A"/>
<rect x="51" y="23" width="2" height="1" fill="#101014"/>
<rect x="53" y="23" width="1" height="1" fill="#FFD60A"/>
<rect x="54" y="23" width="1" height="1" fill="#101014"/>
<rect x="55" y="23" width="1" height="1" fill="#FFD60A"/>
<rect x="56" y="23" width="2" height="1" fill="#101014"/>
<rect x="58" y="23" width="2" height="1" fill="#FFD60A"/>
<rect x="60" y="23" width="2" height="1" fill="#101014"/>
<rect x="62" y="23" width="4" height="1" fill="#FFD60A"/>
<rect x="66" y="23" width="2" height="1" fill="#101014"/>
<rect x="68" y="23" width="4" height="1" fill="#FFD60A"/>
<rect x="72" y="23" width="4" height="1" fill="#101014"/>
<rect x="76" y="23" width="2" height="1" fill="#FFD60A"/>
<rect x="78" y="23" width="2" height="1" fill="#101014"/>
<rect x="80" y="23" width="2" height="1" fill="#FFD60A"/>
<rect x="82" y="23" width="2" height="1" fill="#101014"/>
<rect x="84" y="23" width="1" height="1" fill="#FFD60A"/>
<rect x="85" y="23" width="2" height="1" fill="#101014"/>
<rect x="87" y="23" width="2" height="1" fill="#FFD60A"/>
<rect x="89" y="23" width="2" height="1" fill="#101014"/>
<rect x="91" y="23" width="1" height="1" fill="#FFD60A"/>
<rect x="92" y="23" width="3" height="1" fill="#101014"/>
<rect x="95" y="23" width="4" height="1" fill="#FFD60A"/>
<rect x="99" y="23" width="6" height="1" fill="#101014"/>
<rect x="105" y="23" width="2" height="1" fill="#FFD60A"/>
<rect x="49" y="24" width="2" height="1" fill="#FFD60A"/>
<rect x="51" y="24" width="2" height="1" fill="#101014"/>
<rect x="53" y="24" width="3" height="1" fill="#FFD60A"/>
<rect x="56" y="24" width="2" height="1" fill="#101014"/>
<rect x="58" y="24" width="2" height="1" fill="#FFD60A"/>
<rect x="60" y="24" width="2" height="1" fill="#101014"/>
<rect x="62" y="24" width="4" height="1" fill="#FFD60A"/>
<rect x="66" y="24" width="2" height="1" fill="#101014"/>
<rect x="68" y="24" width="7" height="1" fill="#FFD60A"/>
<rect x="75" y="24" width="2" height="1" fill="#101014"/>
<rect x="77" y="24" width="1" height="1" fill="#FFD60A"/>
<rect x="78" y="24" width="2" height="1" fill="#101014"/>
<rect x="80" y="24" width="2" height="1" fill="#FFD60A"/>
<rect x="82" y="24" width="2" height="1" fill="#101014"/>
<rect x="84" y="24" width="1" height="1" fill="#FFD60A"/>
<rect x="85" y="24" width="2" height="1" fill="#101014"/>
<rect x="87" y="24" width="2" height="1" fill="#FFD60A"/>
<rect x="89" y="24" width="2" height="1" fill="#101014"/>
<rect x="91" y="24" width="1" height="1" fill="#FFD60A"/>
<rect x="92" y="24" width="4" height="1" fill="#101014"/>
<rect x="96" y="24" width="3" height="1" fill="#FFD60A"/>
<rect x="99" y="24" width="2" height="1" fill="#101014"/>
<rect x="101" y="24" width="2" height="1" fill="#FFD60A"/>
<rect x="103" y="24" width="2" height="1" fill="#101014"/>
<rect x="105" y="24" width="2" height="1" fill="#FFD60A"/>
<rect x="49" y="25" width="2" height="1" fill="#FFD60A"/>
<rect x="51" y="25" width="2" height="1" fill="#101014"/>
<rect x="53" y="25" width="3" height="1" fill="#FFD60A"/>
<rect x="56" y="25" width="2" height="1" fill="#101014"/>
<rect x="58" y="25" width="2" height="1" fill="#FFD60A"/>
<rect x="60" y="25" width="2" height="1" fill="#101014"/>
<rect x="62" y="25" width="4" height="1" fill="#FFD60A"/>
<rect x="66" y="25" width="2" height="1" fill="#101014"/>
<rect x="68" y="25" width="7" height="1" fill="#FFD60A"/>
<rect x="75" y="25" width="2" height="1" fill="#101014"/>
<rect x="77" y="25" width="1" height="1" fill="#FFD60A"/>
<rect x="78" y="25" width="2" height="1" fill="#101014"/>
<rect x="80" y="25" width="2" height="1" fill="#FFD60A"/>
<rect x="82" y="25" width="2" height="1" fill="#101014"/>
<rect x="84" y="25" width="1" height="1" fill="#FFD60A"/>
<rect x="85" y="25" width="2" height="1" fill="#101014"/>
<rect x="87" y="25" width="2" height="1" fill="#FFD60A"/>
<rect x="89" y="25" width="2" height="1" fill="#101014"/>
<rect x="91" y="25" width="1" height="1" fill="#FFD60A"/>
<rect x="92" y="25" width="2" height="1" fill="#101014"/>
<rect x="94" y="25" width="1" height="1" fill="#FFD60A"/>
<rect x="95" y="25" width="2" height="1" fill="#101014"/>
<rect x="97" y="25" width="2" height="1" fill="#FFD60A"/>
<rect x="99" y="25" width="2" height="1" fill="#101014"/>
<rect x="101" y="25" width="2" height="1" fill="#FFD60A"/>
<rect x="103" y="25" width="2" height="1" fill="#101014"/>
<rect x="105" y="25" width="2" height="1" fill="#FFD60A"/>
<rect x="49" y="26" width="2" height="1" fill="#FFD60A"/>
<rect x="51" y="26" width="2" height="1" fill="#101014"/>
<rect x="53" y="26" width="3" height="1" fill="#FFD60A"/>
<rect x="56" y="26" width="2" height="1" fill="#101014"/>
<rect x="58" y="26" width="1" height="1" fill="#FFD60A"/>
<rect x="59" y="26" width="4" height="1" fill="#101014"/>
<rect x="63" y="26" width="3" height="1" fill="#FFD60A"/>
<rect x="66" y="26" width="2" height="1" fill="#101014"/>
<rect x="68" y="26" width="3" height="1" fill="#FFD60A"/>
<rect x="71" y="26" width="5" height="1" fill="#101014"/>
<rect x="76" y="26" width="3" height="1" fill="#FFD60A"/>
<rect x="79" y="26" width="4" height="1" fill="#101014"/>
<rect x="83" y="26" width="3" height="1" fill="#FFD60A"/>
<rect x="86" y="26" width="4" height="1" fill="#101014"/>
<rect x="90" y="26" width="2" height="1" fill="#FFD60A"/>
<rect x="92" y="26" width="2" height="1" fill="#101014"/>
<rect x="94" y="26" width="2" height="1" fill="#FFD60A"/>
<rect x="96" y="26" width="2" height="1" fill="#101014"/>
<rect x="98" y="26" width="1" height="1" fill="#FFD60A"/>
<rect x="99" y="26" width="2" height="1" fill="#101014"/>
<rect x="101" y="26" width="2" height="1" fill="#FFD60A"/>
<rect x="103" y="26" width="2" height="1" fill="#101014"/>
<rect x="105" y="26" width="2" height="1" fill="#FFD60A"/>
<rect x="49" y="27" width="58" height="1" fill="#FFD60A"/>
<rect x="49" y="28" width="58" height="1" fill="#FFD60A"/>
</svg>